Coordinates
version=1
nRows=20
nColumns=20
inDegrees=yes

Units are S.I. units (second, meters, Newtons, ...)
Angles are in degrees.

endheader
time	thorax_tilt	thorax_list	thorax_rotation	thorax_tx	thorax_ty	thorax_tz	sternoclavicular_r1	sternoclavicular_r2	sternoclavicular_r3	Acromioclavicular_r1	Acromioclavicular_r2	Acromioclavicular_r3	shoulder_r1	shoulder_r2	shoulder_r3	elbow_flexion	pro_sup	hand_r_Add	hand_r_Flex
      0.08000000	     -6.67467201	      4.83771585	     89.10857966	     -0.74911963	      0.72160896	     -0.29410351	     20.90169480	      0.00000000	      0.00000000	      0.00000000	      0.00000000	      0.00000000	    -62.05486266	    -47.93156147	    -46.50058530	     21.15327178	      0.00000000	      0.00000000	      0.00000000
      0.08195122	     -6.65164138	      4.84039789	     89.10405026	     -0.74926126	      0.72173475	     -0.29419464	     21.06461686	      0.00000000	      0.00000000	      0.00000000	      0.00000000	      0.00000000	    -60.76453542	    -46.63895786	    -45.08793367	     21.02073737	      0.00000000	      0.00000000	      0.00000000
      0.08390244	     -6.64802231	      4.83634118	     89.12237466	     -0.74935281	      0.72184666	     -0.29420873	     21.18047444	      0.00000000	      0.00000000	      0.00000000	      0.00000000	      0.00000000	    -59.32818021	    -45.18151695	    -43.65212416	     21.05443999	      0.00000000	      0.00000000	      0.00000000
      0.08585366	     -6.60908606	      4.85557625	     89.17872231	     -0.74950182	      0.72194655	     -0.29420412	     21.33787276	      0.00000000	      0.00000000	      0.00000000	      0.00000000	      0.00000000	    -58.09120809	    -43.75349659	    -42.36902546	     20.80600199	      0.00000000	      0.00000000	      0.00000000
      0.08780488	     -6.60872455	      4.84164614	     89.22973552	     -0.74961788	      0.72204905	     -0.29421971	     21.45029300	      0.00000000	      0.00000000	      0.00000000	      0.00000000	      0.00000000	    -56.89858631	    -42.33686131	    -41.13912778	     20.58215544	      0.00000000	      0.00000000	      0.00000000
      0.08975610	     -6.59283671	      4.86808087	     89.32906122	     -0.74970784	      0.72213365	     -0.29420713	     21.55613168	      0.00000000	      0.00000000	      0.00000000	      0.00000000	      0.00000000	    -55.85683028	    -41.02005067	    -40.13742921	     20.36449627	      0.00000000	      0.00000000	      0.00000000
      0.09170732	     -6.70449097	      4.84638961	     89.45093507	     -0.74967838	      0.72219842	     -0.29430271	     21.45845543	      0.00000000	      0.00000000	      0.00000000	      0.00000000	      0.00000000	    -54.66445758	    -39.68924687	    -39.13442639	     20.33952547	      0.00000000	      0.00000000	      0.00000000
      0.09365854	     -6.58074273	      4.84848956	     89.61751281	     -0.74979671	      0.72227127	     -0.29433395	     21.77669162	      0.00000000	      0.00000000	      0.00000000	      0.00000000	      0.00000000	    -53.86233220	    -38.33500052	    -38.34855234	     20.23180458	      0.00000000	      0.00000000	      0.00000000
      0.09560976	     -6.57379407	      4.80802315	     89.82042813	     -0.74978296	      0.72230926	     -0.29439070	     21.87605316	      0.00000000	      0.00000000	      0.00000000	      0.00000000	      0.00000000	    -53.17348931	    -37.42678540	    -37.77610088	     20.27562112	      0.00000000	      0.00000000	      0.00000000
      0.09756098	     -6.62431053	      4.76883464	     90.18105904	     -0.74964123	      0.72239400	     -0.29431028	     21.92419103	      0.00000000	      0.00000000	      0.00000000	      0.00000000	      0.00000000	    -53.02326499	    -37.26974335	    -37.67319248	     20.13623262	      0.00000000	      0.00000000	      0.00000000
      0.09951220	     -6.60682752	      4.75243648	     90.25482012	     -0.74969525	      0.72232850	     -0.29463962	     21.92996490	      0.00000000	      0.00000000	      0.00000000	      0.00000000	      0.00000000	    -52.02074531	    -36.14942803	    -36.89208961	     20.29778485	      0.00000000	      0.00000000	      0.00000000
      0.10146341	     -6.65722853	      4.71534385	     90.58599220	     -0.74959067	      0.72242128	     -0.29465515	     21.98511999	      0.00000000	      0.00000000	      0.00000000	      0.00000000	      0.00000000	    -51.90434288	    -36.10038575	    -36.81159680	     20.25554364	      0.00000000	      0.00000000	      0.00000000
      0.10341463	     -6.55409237	      4.66523109	     90.78636471	     -0.74966693	      0.72226943	     -0.29489210	     22.02835404	      0.00000000	      0.00000000	      0.00000000	      0.00000000	      0.00000000	    -51.17294027	    -35.59511232	    -36.27414876	     20.32087577	      0.00000000	      0.00000000	      0.00000000
      0.10536585	     -6.47123894	      4.64709068	     91.10950955	     -0.74972461	      0.72225713	     -0.29490317	     22.08611217	      0.00000000	      0.00000000	      0.00000000	      0.00000000	      0.00000000	    -50.87007863	    -35.64749415	    -36.08306661	     20.23427856	      0.00000000	      0.00000000	      0.00000000
      0.10731707	     -6.45470717	      4.62283975	     91.37090841	     -0.74969819	      0.72218608	     -0.29502106	     21.98786298	      0.00000000	      0.00000000	      0.00000000	      0.00000000	      0.00000000	    -50.42943744	    -35.79599782	    -35.79086612	     20.22699060	      0.00000000	      0.00000000	      0.00000000
      0.10926829	     -6.34172676	      4.59919974	     91.67383126	     -0.74979166	      0.72220010	     -0.29503005	     22.02171155	      0.00000000	      0.00000000	      0.00000000	      0.00000000	      0.00000000	    -50.08101300	    -36.06404243	    -35.50400159	     20.18950824	      0.00000000	      0.00000000	      0.00000000
      0.11121951	     -6.28228916	      4.58894887	     91.96090767	     -0.74992851	      0.72225393	     -0.29502960	     22.01982595	      0.00000000	      0.00000000	      0.00000000	      0.00000000	      0.00000000	    -49.83231398	    -36.44032705	    -35.17064609	     19.99961249	      0.00000000	      0.00000000	      0.00000000
      0.11317073	     -6.17880499	      4.58153723	     92.26897082	     -0.75004665	      0.72231980	     -0.29496762	     22.04974577	      0.00000000	      0.00000000	      0.00000000	      0.00000000	      0.00000000	    -49.47069065	    -36.74256564	    -34.72886341	     19.90487909	      0.00000000	      0.00000000	      0.00000000
      0.11512195	     -6.07044004	      4.60044463	     92.62418068	     -0.75013127	      0.72234645	     -0.29484621	     22.11971134	      0.00000000	      0.00000000	      0.00000000	      0.00000000	      0.00000000	    -49.11010467	    -36.98324788	    -34.29722957	     19.94572511	      0.00000000	      0.00000000	      0.00000000
      0.11707317	     -6.01770755	      4.56446203	     92.89224416	     -0.75029062	      0.72249960	     -0.29485751	     22.10837245	      0.00000000	      0.00000000	      0.00000000	      0.00000000	      0.00000000	    -48.62735411	    -37.15048805	    -33.56046131	     19.85806634	      0.00000000	      0.00000000	      0.00000000
